<svg xmlns="http://www.w3.org/2000/svg" xmlns:xlink="http://www.w3.org/1999/xlink" width="370" zoomAndPan="magnify" viewBox="0 0 277.5 280.5" height="374" preserveAspectRatio="xMidYMid meet" version="1.0"><defs><clipPath id="2efb6c7b9d"><path d="M 75.363281 75.277344 L 202 75.277344 L 202 205 L 75.363281 205 Z M 75.363281 75.277344 " clip-rule="nonzero"/></clipPath><clipPath id="be28e9ab87"><path d="M 113.613281 75.277344 L 163.730469 75.277344 C 173.875 75.277344 183.601562 79.304688 190.777344 86.480469 C 197.949219 93.652344 201.980469 103.382812 201.980469 113.527344 L 201.980469 166.683594 C 201.980469 176.828125 197.949219 186.558594 190.777344 193.730469 C 183.601562 200.90625 173.875 204.933594 163.730469 204.933594 L 113.613281 204.933594 C 103.46875 204.933594 93.738281 200.90625 86.566406 193.730469 C 79.390625 186.558594 75.363281 176.828125 75.363281 166.683594 L 75.363281 113.527344 C 75.363281 103.382812 79.390625 93.652344 86.566406 86.480469 C 93.738281 79.304688 103.46875 75.277344 113.613281 75.277344 " clip-rule="nonzero"/></clipPath><clipPath id="04a1d3496d"><path d="M 75 82 L 188 82 L 188 195 L 75 195 Z M 75 82 " clip-rule="nonzero"/></clipPath><clipPath id="cf3af0bdf4"><path d="M 131.351562 82.003906 L 187.566406 138.21875 L 131.351562 194.433594 L 75.136719 138.21875 Z M 131.351562 82.003906 " clip-rule="nonzero"/></clipPath><clipPath id="c4ef64525d"><path d="M 139.710938 37.609375 L 239.941406 137.839844 L 139.710938 238.074219 L 39.476562 137.839844 Z M 139.710938 37.609375 " clip-rule="nonzero"/></clipPath><clipPath id="3352c5f830"><path d="M 139.710938 37.609375 L 239.941406 137.839844 L 139.710938 238.074219 L 39.476562 137.839844 Z M 139.710938 37.609375 " clip-rule="nonzero"/></clipPath><clipPath id="d47c02e131"><path d="M 78 82 L 188 82 L 188 195 L 78 195 Z M 78 82 " clip-rule="nonzero"/></clipPath><clipPath id="29c629cbb9"><path d="M 131.351562 82.003906 L 187.566406 138.21875 L 131.351562 194.433594 L 75.136719 138.21875 Z M 131.351562 82.003906 " clip-rule="nonzero"/></clipPath><clipPath id="2a4b31edb2"><path d="M 139.710938 37.609375 L 239.941406 137.839844 L 139.710938 238.074219 L 39.476562 137.839844 Z M 139.710938 37.609375 " clip-rule="nonzero"/></clipPath><clipPath id="08bcbe5d7d"><path d="M 139.710938 37.609375 L 239.941406 137.839844 L 139.710938 238.074219 L 39.476562 137.839844 Z M 139.710938 37.609375 " clip-rule="nonzero"/></clipPath><clipPath id="afe4a8bbd7"><path d="M 105 107 L 184 107 L 184 168 L 105 168 Z M 105 107 " clip-rule="nonzero"/></clipPath><clipPath id="b55c0b9f8b"><path d="M 131.351562 82.003906 L 187.566406 138.21875 L 131.351562 194.433594 L 75.136719 138.21875 Z M 131.351562 82.003906 " clip-rule="nonzero"/></clipPath><clipPath id="6900ca5d37"><path d="M 139.710938 37.609375 L 239.941406 137.839844 L 139.710938 238.074219 L 39.476562 137.839844 Z M 139.710938 37.609375 " clip-rule="nonzero"/></clipPath><clipPath id="b0dea7fa0d"><path d="M 139.710938 37.609375 L 239.941406 137.839844 L 139.710938 238.074219 L 39.476562 137.839844 Z M 139.710938 37.609375 " clip-rule="nonzero"/></clipPath><clipPath id="d263523252"><path d="M 119.527344 136.101562 L 147 136.101562 L 147 141 L 119.527344 141 Z M 119.527344 136.101562 " clip-rule="nonzero"/></clipPath><clipPath id="0c16ba5f45"><path d="M 121.714844 136.101562 L 144.703125 136.101562 C 145.910156 136.101562 146.890625 137.082031 146.890625 138.289062 C 146.890625 139.492188 145.910156 140.472656 144.703125 140.472656 L 121.714844 140.472656 C 120.507812 140.472656 119.527344 139.492188 119.527344 138.289062 C 119.527344 137.082031 120.507812 136.101562 121.714844 136.101562 " clip-rule="nonzero"/></clipPath></defs><g clip-path="url(#2efb6c7b9d)"><g clip-path="url(#be28e9ab87)"><path fill="#d3d3d3" d="M 75.363281 75.277344 L 201.355469 75.277344 L 201.355469 204.722656 L 75.363281 204.722656 Z M 75.363281 75.277344 " fill-opacity="1" fill-rule="nonzero"/></g></g><g clip-path="url(#04a1d3496d)"><g clip-path="url(#cf3af0bdf4)"><g clip-path="url(#c4ef64525d)"><g clip-path="url(#3352c5f830)"><path fill="#d3d3d3" d="M 189.828125 87.722656 C 217.484375 115.382812 217.484375 160.296875 189.828125 187.957031 C 162.167969 215.613281 117.253906 215.613281 89.59375 187.957031 C 61.933594 160.296875 61.933594 115.382812 89.59375 87.722656 C 117.253906 60.066406 162.167969 60.066406 189.828125 87.722656 " fill-opacity="1" fill-rule="evenodd"/></g></g></g></g><g clip-path="url(#d47c02e131)"><g clip-path="url(#29c629cbb9)"><g clip-path="url(#2a4b31edb2)"><g clip-path="url(#08bcbe5d7d)"><path fill="#d3d3d3" d="M 182.667969 94.882812 C 206.375 118.59375 206.375 157.089844 182.667969 180.796875 C 158.957031 204.503906 120.460938 204.503906 96.753906 180.796875 C 73.046875 157.089844 73.046875 118.59375 96.753906 94.882812 C 120.460938 71.175781 158.957031 71.175781 182.667969 94.882812 " fill-opacity="1" fill-rule="evenodd"/></g></g></g></g><g clip-path="url(#afe4a8bbd7)"><g clip-path="url(#b55c0b9f8b)"><g clip-path="url(#6900ca5d37)"><g clip-path="url(#b0dea7fa0d)"><path fill="#66c0dc" d="M 181.617188 140.203125 C 182.597656 139.824219 183.246094 138.894531 183.242188 137.839844 C 183.246094 136.785156 182.597656 135.855469 181.617188 135.476562 C 166.222656 129.589844 126.214844 114.292969 109.378906 107.859375 C 108.351562 107.460938 107.179688 107.78125 106.484375 108.65625 C 105.808594 109.53125 105.765625 110.746094 106.402344 111.664062 C 111.875 119.570312 120.59375 132.164062 123.53125 136.398438 C 124.125 137.257812 124.125 138.421875 123.53125 139.28125 C 120.59375 143.515625 111.875 156.109375 106.402344 164.015625 C 105.765625 164.933594 105.808594 166.148438 106.484375 167.023438 C 107.179688 167.898438 108.351562 168.21875 109.378906 167.820312 C 126.214844 161.386719 166.222656 146.089844 181.617188 140.203125 " fill-opacity="1" fill-rule="evenodd"/></g></g></g></g><g clip-path="url(#d263523252)"><g clip-path="url(#0c16ba5f45)"><path fill="#d3d3d3" d="M 119.527344 136.101562 L 147.144531 136.101562 L 147.144531 141.28125 L 119.527344 141.28125 Z M 119.527344 136.101562 " fill-opacity="1" fill-rule="nonzero"/></g></g></svg>