<svg xmlns="http://www.w3.org/2000/svg" xmlns:xlink="http://www.w3.org/1999/xlink" width="343" zoomAndPan="magnify" viewBox="0 0 257.25 274.5" height="366" preserveAspectRatio="xMidYMid meet" version="1.0"><defs><clipPath id="77720780a0"><path d="M 85 75.214844 L 171 75.214844 L 171 186 L 85 186 Z M 85 75.214844 " clip-rule="nonzero"/></clipPath><clipPath id="652b30c9b4"><path d="M 75.117188 99 L 181.308594 99 L 181.308594 186 L 75.117188 186 Z M 75.117188 99 " clip-rule="nonzero"/></clipPath><clipPath id="9b50ca7111"><path d="M 90 185 L 104 185 L 104 198.605469 L 90 198.605469 Z M 90 185 " clip-rule="nonzero"/></clipPath><clipPath id="350bcf0e41"><path d="M 152 185 L 166 185 L 166 198.605469 L 152 198.605469 Z M 152 185 " clip-rule="nonzero"/></clipPath></defs><g clip-path="url(#77720780a0)"><path fill="#4d81b2" d="M 170.796875 181.039062 C 170.796875 183.628906 168.695312 185.730469 166.109375 185.730469 L 90.660156 185.730469 C 88.070312 185.730469 85.96875 183.628906 85.96875 181.039062 L 85.96875 79.921875 C 85.96875 77.332031 88.070312 75.230469 90.660156 75.230469 L 166.109375 75.230469 C 168.695312 75.230469 170.796875 77.332031 170.796875 79.921875 L 170.796875 181.039062 " fill-opacity="1" fill-rule="nonzero"/></g><g clip-path="url(#652b30c9b4)"><path fill="#62a2dd" d="M 169.707031 135.453125 L 169.707031 105.5 L 173.179688 108.082031 C 172.902344 108.359375 172.730469 108.738281 172.730469 109.15625 L 172.730469 123.03125 C 172.730469 123.867188 173.410156 124.542969 174.246094 124.542969 L 175.851562 124.542969 Z M 80.445312 124.542969 L 82.175781 124.542969 C 83.011719 124.542969 83.6875 123.867188 83.6875 123.03125 L 83.6875 109.15625 C 83.6875 108.707031 83.484375 108.316406 83.175781 108.039062 L 86.714844 105.40625 L 86.714844 135.675781 Z M 179.789062 107.644531 L 175.988281 107.644531 L 169.691406 102.957031 C 169.609375 101.007812 168.011719 99.445312 166.042969 99.445312 L 90.378906 99.445312 C 88.441406 99.445312 86.875 100.953125 86.742188 102.855469 L 80.304688 107.644531 L 76.628906 107.644531 C 75.792969 107.644531 75.117188 108.320312 75.117188 109.15625 L 75.117188 123.03125 C 75.117188 123.867188 75.792969 124.542969 76.628906 124.542969 L 78.261719 124.542969 L 78.261719 124.8125 L 86.714844 139.8125 L 86.714844 182.066406 C 86.714844 184.089844 88.355469 185.730469 90.378906 185.730469 L 166.042969 185.730469 C 168.066406 185.730469 169.707031 184.089844 169.707031 182.066406 L 169.707031 139.585938 L 178.035156 124.8125 L 178.035156 124.542969 L 179.789062 124.542969 C 180.625 124.542969 181.304688 123.867188 181.304688 123.03125 L 181.304688 109.15625 C 181.304688 108.320312 180.625 107.644531 179.789062 107.644531 " fill-opacity="1" fill-rule="nonzero"/></g><path fill="#50555d" d="M 86.714844 169.921875 L 86.714844 182.066406 C 86.714844 184.089844 88.355469 185.730469 90.378906 185.730469 L 166.042969 185.730469 C 168.066406 185.730469 169.703125 184.089844 169.703125 182.066406 L 169.703125 169.921875 L 86.714844 169.921875 " fill-opacity="1" fill-rule="nonzero"/><g clip-path="url(#9b50ca7111)"><path fill="#6e757d" d="M 90.925781 185.730469 L 90.925781 196.570312 C 90.925781 197.691406 91.835938 198.601562 92.957031 198.601562 L 101.765625 198.601562 C 102.886719 198.601562 103.792969 197.691406 103.792969 196.570312 L 103.792969 185.730469 L 90.925781 185.730469 " fill-opacity="1" fill-rule="nonzero"/></g><g clip-path="url(#350bcf0e41)"><path fill="#6e757d" d="M 152.628906 185.730469 L 152.628906 196.570312 C 152.628906 197.691406 153.535156 198.601562 154.65625 198.601562 L 163.464844 198.601562 C 164.585938 198.601562 165.492188 197.691406 165.492188 196.570312 L 165.492188 185.730469 L 152.628906 185.730469 " fill-opacity="1" fill-rule="nonzero"/></g><path fill="#e7e7e5" d="M 161.636719 179.289062 C 161.636719 179.726562 161.28125 180.082031 160.84375 180.082031 L 151.152344 180.082031 C 150.71875 180.082031 150.363281 179.726562 150.363281 179.289062 L 150.363281 173.269531 C 150.363281 172.832031 150.71875 172.480469 151.152344 172.480469 L 160.84375 172.480469 C 161.28125 172.480469 161.636719 172.832031 161.636719 173.269531 L 161.636719 179.289062 " fill-opacity="1" fill-rule="nonzero"/><path fill="#e7e7e5" d="M 106.058594 179.289062 C 106.058594 179.726562 105.703125 180.082031 105.265625 180.082031 L 95.574219 180.082031 C 95.140625 180.082031 94.785156 179.726562 94.785156 179.289062 L 94.785156 173.269531 C 94.785156 172.832031 95.140625 172.480469 95.574219 172.480469 L 105.265625 172.480469 C 105.703125 172.480469 106.058594 172.832031 106.058594 173.269531 L 106.058594 179.289062 " fill-opacity="1" fill-rule="nonzero"/><path fill="#f46b44" d="M 86.714844 180.082031 L 91.5625 180.082031 C 91.996094 180.082031 92.351562 179.726562 92.351562 179.289062 L 92.351562 173.269531 C 92.351562 172.832031 91.996094 172.480469 91.5625 172.480469 L 86.714844 172.480469 L 86.714844 180.082031 " fill-opacity="1" fill-rule="nonzero"/><path fill="#f46b44" d="M 169.703125 172.480469 L 164.886719 172.480469 C 164.449219 172.480469 164.09375 172.832031 164.09375 173.269531 L 164.09375 179.289062 C 164.09375 179.726562 164.449219 180.082031 164.886719 180.082031 L 169.703125 180.082031 L 169.703125 172.480469 " fill-opacity="1" fill-rule="nonzero"/><path fill="#9dd6f2" d="M 166.679688 103.109375 C 166.679688 102.757812 166.394531 102.472656 166.042969 102.472656 L 90.378906 102.472656 C 90.027344 102.472656 89.742188 102.757812 89.742188 103.109375 L 89.742188 135.019531 L 166.679688 135.019531 L 166.679688 103.109375 " fill-opacity="1" fill-rule="nonzero"/><path fill="#50555d" d="M 151.15625 165.527344 C 151.15625 166.363281 150.476562 167.039062 149.640625 167.039062 L 106.78125 167.039062 C 105.945312 167.039062 105.265625 166.363281 105.265625 165.527344 L 105.265625 143.335938 C 105.265625 142.503906 105.945312 141.824219 106.78125 141.824219 L 149.640625 141.824219 C 150.476562 141.824219 151.15625 142.503906 151.15625 143.335938 L 151.15625 165.527344 " fill-opacity="1" fill-rule="nonzero"/><path fill="#e7e7e5" d="M 106.78125 142.839844 C 106.503906 142.839844 106.28125 143.0625 106.28125 143.335938 L 106.28125 165.527344 C 106.28125 165.800781 106.503906 166.027344 106.78125 166.027344 L 149.640625 166.027344 C 149.917969 166.027344 150.140625 165.800781 150.140625 165.527344 L 150.140625 143.335938 C 150.140625 143.0625 149.917969 142.839844 149.640625 142.839844 Z M 149.640625 168.054688 L 106.78125 168.054688 C 105.386719 168.054688 104.25 166.921875 104.25 165.527344 L 104.25 143.335938 C 104.25 141.945312 105.386719 140.808594 106.78125 140.808594 L 149.640625 140.808594 C 151.035156 140.808594 152.167969 141.945312 152.167969 143.335938 L 152.167969 165.527344 C 152.167969 166.921875 151.035156 168.054688 149.640625 168.054688 " fill-opacity="1" fill-rule="nonzero"/><path fill="#a6adb6" d="M 139.570312 178.871094 L 116.851562 178.871094 L 116.851562 173.1875 L 139.570312 173.1875 L 139.570312 178.871094 " fill-opacity="1" fill-rule="nonzero"/></svg>